# xmcd
#
# Track frame offsets:
#	150
#	26956
#	59914
#	104742
#	119192
#	137875
#	171592
#	193705
#	223634
#	239636
#	260411
#	278449
#	291023
#	313078
#
# Disc length: 4456
#
# Revision: 1
# Processed by: cddbd v1.5.1PL0 Copyright (c) Steve Scherf et al.
# Submitted via: CDex 1.51
# Normalized: r0:TDELIM( - )
#
DISCID=f311660e
DTITLE=Jazz Improv - Vol. 4 Number 3 - Blue
DYEAR=1900
DGENRE=Jazz
TTITLE0=Tony Monaco and Joey DeFrancesco - Katerina's Prayer
TTITLE1=Mike Kennedy - Teahouse
TTITLE2=Gerald Wilson - Blues For The Count
TTITLE3=Priscilla Wright - I Got Lost In His Arms
TTITLE4=Andrew Hill - Sideways
TTITLE5=Art Blakey - Invitation
TTITLE6=Eric Nemeyer - Short and Sassy
TTITLE7=Lincoln Center Jazz Orchestra - Bu's Moods
TTITLE8=Sonny Stitt - Webb City
TTITLE9=Jackie Ryan - Seasons of the Heart
TTITLE10=Chris Cortez - Jammin' with Jay
TTITLE11=Russell Malone - Hand Told Stories
TTITLE12=Bill McCormick - The Nights get so Cool Here
TTITLE13=Oscar Stagnaro - Rabbi Vellanatowitz
EXTD=
EXTT0=
EXTT1=
EXTT2=
EXTT3=
EXTT4=
EXTT5=
EXTT6=
EXTT7=
EXTT8=
EXTT9=
EXTT10=
EXTT11=
EXTT12=
EXTT13=
PLAYORDER=
